<svg id="icons" enable-background="new 0 0 64 64" height="512" viewBox="0 0 64 64" width="512" xmlns="http://www.w3.org/2000/svg"><path d="m6.51 32.995c2.48 0 4.5 2.02 4.5 4.5 0 2.489-2.02 4.5-4.5 4.5-.93 0-1.79-.28-2.5-.761-1.21-.8-2-2.18-2-3.739 0-2.48 2.01-4.5 4.5-4.5z" fill="#ffce54"/><path d="m42 5.995c3.311 0 6 2.689 6 6 0 3.319-2.689 6-6 6s-6-2.681-6-6c0-3.31 2.689-6 6-6z" fill="#ed5565"/><path d="m54 5.995c3.31 0 6 2.689 6 6 0 3.319-2.69 6-6 6-3.32 0-6-2.681-6-6 0-3.31 2.68-6 6-6z" fill="#ed5565"/><path d="m25.51 32.995c2.48 0 4.5 2.02 4.5 4.5 0 1.569-.8 2.949-2.01 3.75-.71.479-1.57.75-2.49.75-2.49 0-4.5-2.011-4.5-4.5 0-2.48 2.01-4.5 4.5-4.5z" fill="#ffce54"/><path d="m29.01 11.995c0 1.89-.88 3.579-2.25 4.68-.9-4.21-4.22-7.53-8.43-8.43 1.1-1.37 2.789-2.25 4.68-2.25 3.32 0 6 2.69 6 6z" fill="#edab37"/><path d="m22 46.005c3.32 0 6 2.689 6 6 0 3.31-2.68 6-6 6-3.28 0-5.939-2.641-5.99-5.9 0-.03 0-.07 0-.1s0-.07 0-.101c.051-3.259 2.71-5.899 5.99-5.899z" fill="#ffce54"/><path d="m37.24 47.324c.899 4.21 4.22 7.53 8.43 8.431v.01c-1.1 1.37-2.78 2.24-4.68 2.24-3.311 0-6-2.681-6-6 0-1.891.879-3.58 2.25-4.681z" fill="#d3374e"/><path d="m9.01 5.995c1.891 0 3.58.88 4.68 2.25-4.209.899-7.529 4.22-8.43 8.43-1.38-1.101-2.25-2.79-2.25-4.68 0-3.31 2.679-6 6-6z" fill="#edab37"/><path d="m38.5 22.005c2.48 0 4.5 2.02 4.5 4.5 0 2.49-2.02 4.5-4.5 4.5-2.49 0-4.5-2.01-4.5-4.5 0-1.561.79-2.931 2-3.74.72-.481 1.58-.76 2.5-.76z" fill="#ed5565"/><path d="m16.01 17.995c2.21 0 4 1.8 4 4 0 2.22-1.79 4-4 4s-4-1.78-4-4c0-2.2 1.79-4 4-4z" fill="#ffce54"/><path d="m16.01 51.904c-.01.031-.01.071-.01.101 0 .029 0 .069.01.1-.061 3.26-2.72 5.9-6 5.9-3.32 0-6-2.69-6-6 0-3.311 2.68-6 6-6 3.28 0 5.939 2.64 6 5.899z" fill="#ffce54"/><circle cx="48" cy="42.005" fill="#ed5565" r="4"/><path d="m8.23 26.774c1.989 1.99 4.739 3.221 7.779 3.221s5.79-1.23 7.78-3.221l.22.221c3.32 0 6 2.689 6 6.01h-.009l.01 4.49c0-2.48-2.02-4.5-4.5-4.5-2.49 0-4.5 2.02-4.5 4.5 0 2.489 2.01 4.5 4.5 4.5.92 0 1.78-.271 2.49-.75v10.76c0-3.311-2.68-6-6-6-3.28 0-5.939 2.64-5.99 5.899-.061-3.26-2.72-5.899-6-5.899-3.32 0-6 2.689-6 6v-10.771c.71.48 1.57.761 2.5.761 2.48 0 4.5-2.011 4.5-4.5 0-2.48-2.02-4.5-4.5-4.5-2.49 0-4.5 2.02-4.5 4.5v-4.49h-.01c0-3.32 2.689-6.01 6.01-6.01z" fill="#edab37"/><path d="m58.75 47.324c1.37 1.101 2.25 2.79 2.25 4.681 0 3.319-2.69 6-6 6-1.9 0-3.59-.87-4.69-2.24 4.22-.911 7.53-4.22 8.44-8.441z" fill="#d3374e"/><path d="m58.99 45.005c0 .8-.08 1.569-.24 2.319-.91 4.221-4.22 7.53-8.44 8.44-.75.16-1.52.24-2.319.24-.801 0-1.57-.08-2.32-.25-4.21-.9-7.53-4.221-8.43-8.431-.17-.75-.25-1.52-.25-2.319 0-3.04 1.229-5.78 3.22-7.78 1.989-1.99 4.75-3.22 7.78-3.22 3.04 0 5.79 1.229 7.779 3.22 1.99 2.001 3.22 4.741 3.22 7.781zm-6.99-3c0-2.21-1.79-4-4-4s-4 1.79-4 4 1.79 4 4 4 4-1.79 4-4z" fill="#da4453"/><path d="m55.77 37.225c-1.989-1.99-4.739-3.22-7.779-3.22-3.03 0-5.791 1.229-7.78 3.22l-.211-.22c-3.32 0-6.01-2.69-6.01-6.01h.01l-.01-4.49h.01c0 2.49 2.01 4.5 4.5 4.5 2.48 0 4.5-2.01 4.5-4.5 0-2.48-2.02-4.5-4.5-4.5-.92 0-1.78.279-2.5.76v-10.77c0 3.319 2.689 6 6 6s6-2.681 6-6c0 3.319 2.68 6 6 6 3.31 0 6-2.681 6-6v10.77c-.72-.48-1.57-.76-2.5-.76-2.49 0-4.5 2.02-4.5 4.5 0 2.49 2.01 4.5 4.5 4.5 2.479 0 4.5-2.01 4.5-4.5v4.49c0 3.319-2.68 6.01-6 6.01z" fill="#d3374e"/><path d="m60 22.765c1.21.81 2 2.19 2 3.74 0 2.49-2.021 4.5-4.5 4.5-2.49 0-4.5-2.01-4.5-4.5 0-2.48 2.01-4.5 4.5-4.5.93 0 1.78.279 2.5.76z" fill="#ed5565"/><path d="m26.76 16.675c.17.75.25 1.52.25 2.32 0 3.039-1.23 5.789-3.22 7.779s-4.74 3.221-7.78 3.221-5.79-1.23-7.779-3.221c-1.99-1.99-3.221-4.74-3.221-7.779 0-.801.08-1.57.25-2.32.9-4.21 4.221-7.53 8.43-8.43.75-.171 1.521-.25 2.32-.25.801 0 1.57.079 2.32.25 4.21.9 7.529 4.22 8.43 8.43zm-6.75 5.32c0-2.2-1.79-4-4-4s-4 1.8-4 4c0 2.22 1.79 4 4 4s4-1.78 4-4z" fill="#f6bb42"/><path d="m16.01 17.995c-.349 0-.681.059-1.003.143v.858c0 .553.447 1 1 1s1-.447 1-1v-.86c-.32-.083-.651-.141-.997-.141z" fill="#edab37"/><path d="m20.035 15.996c-.553 0-1.005-.447-1.005-1s.442-1 .994-1h.011c.552 0 1 .447 1 1s-.448 1-1 1z" fill="#ffce54"/><path d="m12.034 15.996c-.553 0-1.005-.447-1.005-1s.442-1 .994-1h.011c.552 0 1 .447 1 1s-.448 1-1 1z" fill="#ffce54"/><path d="m47.993 44.004c-.553 0-1 .447-1 1v.857c.323.084.657.144 1.007.144.345 0 .674-.058.993-.14v-.861c0-.553-.447-1-1-1z" fill="#d3374e"/><g fill="#ed5565"><path d="m44.025 50.004c-.553 0-1.005-.447-1.005-1s.442-1 .994-1h.011c.552 0 1 .447 1 1s-.448 1-1 1z"/><path d="m52.026 50.004c-.553 0-1.005-.447-1.005-1s.442-1 .994-1h.011c.552 0 1 .447 1 1s-.448 1-1 1z"/></g></svg>