<?xml version="1.0" encoding="iso-8859-1"?>
<!-- Generator: Adobe Illustrator 21.0.0, SVG Export Plug-In . SVG Version: 6.00 Build 0)  -->
<svg xmlns="http://www.w3.org/2000/svg" xmlns:xlink="http://www.w3.org/1999/xlink" version="1.1" id="Capa_1" x="0px" y="0px" viewBox="0 0 512 512" style="enable-background:new 0 0 512 512;" xml:space="preserve" width="512" height="512">
<g>
	<path style="fill:#FF7CB9;" d="M452.135,65.099L424.537,120l-35.402,30h-91.798l-41.404-30l-27.598-54.901   c-6.899-14.099-5.999-30.601,2.102-43.801C238.835,7.8,253.234,0,268.835,0h142.8c15.601,0,30,7.8,38.397,21.299   C458.133,34.499,459.034,51,452.135,65.099z"/>
	<path style="fill:#FA5E97;" d="M452.135,65.099L424.537,120l-35.402,30h-48.9V0h71.4c15.601,0,30,7.8,38.397,21.299   C458.133,34.499,459.034,51,452.135,65.099z"/>
	<g>
		<path style="fill:#FA5E97;" d="M383.734,81.599l-30,60c-2.699,5.101-7.8,8.401-13.499,8.401s-10.8-3.3-13.499-8.401l-30-60    c-3.604-7.2-0.601-16.199,6.899-20.099c7.2-3.6,16.201-0.601,20.098,6.899l16.501,33.001l16.501-33.001    c3.896-7.5,12.898-10.499,20.098-6.899C384.334,65.4,387.337,74.399,383.734,81.599z"/>
	</g>
	<path style="fill:#D94F88;" d="M340.235,150v-48.6l16.501-33.001c3.896-7.5,12.898-10.499,20.098-6.899   c7.5,3.9,10.503,12.9,6.899,20.099l-30,60C351.035,146.7,345.933,150,340.235,150z"/>
	<path style="fill:#FFD396;" d="M424.537,120c0,0-39.001,117.599-39.302,120c-0.3,1.8-30.601,18.3-45,26.1   c-4.501,2.699-7.5,4.2-7.5,4.2l-37.5-30.3l-39.302-120H424.537z"/>
	<path style="fill:#FF9100;" d="M424.537,120c0,0-39.001,117.599-39.302,120c-0.3,1.8-30.601,18.3-45,26.1V120H424.537z"/>
	<g>
		<g>
			<g>
				<g>
					<path style="fill:#61729B;" d="M295.235,240v227c0,24.899,20.098,45,45,45s45-20.101,45-45V240H295.235z"/>
				</g>
			</g>
		</g>
	</g>
	<path style="fill:#47568C;" d="M385.235,240v227c0,24.899-20.098,45-45,45V240H385.235z"/>
	<path style="fill:#FA5E97;" d="M205.235,209.099V345c0,8.399-6.599,15-15,15h-90c-8.401,0-15-6.601-15-15V154.799l72.297,69.3   L205.235,209.099z"/>
	<path style="fill:#D94F88;" d="M205.235,209.099V345c0,8.399-6.599,15-15,15h-45V212.399l12.297,11.7L205.235,209.099z"/>
	<g>
		<path style="fill:#FF7CB9;" d="M175.836,151.5c-9.902-9.901-20.398-17.701-30.601-22.5c-20.098-9.901-39.001-9.6-50.698,2.1    c-4.204,4.2-9.302,11.7-9.302,23.699c0,17.701,11.1,39.3,29.399,57.599c9.902,9.901,20.398,17.401,30.601,22.5    c9.302,4.801,18.6,7.202,27.001,7.202c9.298,0,17.699-3.001,23.698-9.3c4.204-4.2,9.302-11.7,9.302-23.701V208.2    C204.935,190.499,193.835,169.499,175.836,151.5z"/>
	</g>
	<path style="fill:#FA5E97;" d="M172.236,242.1c-8.401,0-17.699-2.401-27.001-7.202V129c10.203,4.799,20.698,12.599,30.601,22.5   c17.999,17.999,29.099,39,29.399,56.7v0.899c0,12.001-5.098,19.501-9.302,23.701C189.935,239.099,181.534,242.1,172.236,242.1z"/>
	<g>
		<path style="fill:#61729B;" d="M220.235,330h-150c-8.401,0-15,6.599-15,15v152c0,8.399,6.599,15,15,15h150c8.401,0,15-6.601,15-15    V345C235.235,336.599,228.636,330,220.235,330z"/>
	</g>
	<path style="fill:#47568C;" d="M235.235,345v152c0,8.399-6.599,15-15,15h-75V330h75C228.636,330,235.235,336.599,235.235,345z"/>
</g>















</svg>
