<svg id="Layer_3" enable-background="new 0 0 64 64" height="512" viewBox="0 0 64 64" width="512" xmlns="http://www.w3.org/2000/svg"><path d="m40 46v-36c-2.561-2.561-6.035-4-9.657-4h-.343v3c0 2.761-2.239 5-5 5-2.761 0-5-2.239-5-5v-3h-.343c-3.622 0-7.096 1.439-9.657 4v36z" fill="#7ec95f"/><path d="m40 26 8-3-8-13z" fill="#5f9747"/><path d="m10 26-8-3 8-13z" fill="#5f9747"/><path d="m10 42h30v4h-30z" fill="#5f9747"/><path d="m54 58v-36c-2.561-2.561-6.035-4-9.657-4h-.343v3c0 2.761-2.239 5-5 5-2.761 0-5-2.239-5-5v-3h-.343c-3.622 0-7.096 1.439-9.657 4v36z" fill="#ed6863"/><g fill="#b24e4a"><path d="m44 32h6v8h-6z"/><path d="m54 38 8-3-8-13z"/><path d="m24 38-8-3 8-13z"/><path d="m24 54h30v4h-30z"/></g></svg>